<svg width="20" height="20" viewBox="0 0 20 20" fill="none" xmlns="http://www.w3.org/2000/svg">
<g clip-path="url(#clip0_201_4)">
<path d="M20 10C20 15.5228 15.5228 20 10 20C4.47715 20 0 15.5228 0 10C0 4.47715 4.47715 0 10 0C15.5228 0 20 4.47715 20 10Z" fill="#1E293B"/>
<path d="M17.2223 9.99993C17.2223 13.9887 13.9888 17.2222 10.0001 17.2222C6.01133 17.2222 2.77783 13.9887 2.77783 9.99993C2.77783 8.42555 3.2816 6.96882 4.13673 5.78215C5.44808 3.96239 7.58572 2.77771 10.0001 2.77771C12.4144 2.77771 14.552 3.96239 15.8634 5.78215C16.7185 6.96882 17.2223 8.42555 17.2223 9.99993Z" fill="#1E293B"/>
<path fill-rule="evenodd" clip-rule="evenodd" d="M5.18694 5.88303L9.99978 15.2734L14.8126 5.88303C13.65 4.5251 11.9251 3.66669 9.99978 3.66669C8.07444 3.66669 6.34961 4.5251 5.18694 5.88303ZM15.8925 7.67375L11.5525 16.1416C14.2996 15.4493 16.3331 12.9621 16.3331 10C16.3331 9.17807 16.1769 8.39353 15.8925 7.67375ZM8.4471 16.1416C5.69995 15.4493 3.66645 12.9621 3.66645 10C3.66645 9.17807 3.82267 8.39353 4.10707 7.67375L8.4471 16.1416ZM3.4153 5.26258C4.88653 3.22094 7.28762 1.88892 9.99978 1.88892C12.7119 1.88892 15.113 3.22094 16.5843 5.26258C17.5448 6.59553 18.1109 8.23298 18.1109 10C18.1109 14.4797 14.4794 18.1111 9.99978 18.1111C5.52014 18.1111 1.88867 14.4797 1.88867 10C1.88867 8.23298 2.45475 6.59553 3.4153 5.26258Z" fill="#F8FAFC"/>
</g>
<defs>
<clipPath id="clip0_201_4">
<rect width="20" height="20" fill="white"/>
</clipPath>
</defs>
</svg>
